<svg width="50" height="50" viewBox="0 0 50 50" fill="none" xmlns="http://www.w3.org/2000/svg">
<path d="M45.8333 5.2085H9.375V33.3335H45.8333V5.2085Z" fill="#DD7C12"/>
<path d="M43.7502 7.2915H11.4585V32.2915H43.7502V7.2915Z" fill="#009688"/>
<path d="M47.9165 36.4582V34.3748C47.9165 33.229 46.979 32.2915 45.8332 32.2915H9.37484C8.229 32.2915 7.2915 33.229 7.2915 34.3748V36.4582H47.9165Z" fill="#773D04"/>
<path d="M10.4168 19.7917C7.50016 19.7917 5.2085 17.5 5.2085 14.5833C5.2085 11.6667 7.60433 9.375 10.4168 9.375C13.3335 9.375 15.6252 11.6667 15.6252 14.5833C15.6252 17.5 13.2293 19.7917 10.4168 19.7917Z" fill="#FFB74D"/>
<path d="M5.2085 42.7085L2.0835 40.6252V36.4585H5.2085V42.7085Z" fill="#FFB74D"/>
<path d="M29.1668 20.9634V24.7134L25.6512 27.3436L23.9585 24.7394L29.1668 20.9634Z" fill="#FFB74D"/>
<path d="M25.595 22.9273L21.8741 25.6419C21.8741 25.6419 15.6054 21.9856 15.1043 21.7096C14.6814 21.4773 14.2752 21.2846 13.8939 21.1804C13.7314 21.1356 13.5575 21.0919 13.3752 21.0513C12.8022 20.9263 12.1252 20.8325 11.4272 20.8325H10.3856C9.30225 20.8325 8.34391 20.9367 7.51058 21.1242C3.21891 22.0836 2.0835 25.3336 2.0835 29.1669V37.5002L5.2085 39.5836V44.7919H15.6252L16.6668 30.8596V27.4409L20.9616 29.9273C21.2856 30.1159 21.646 30.2086 22.0054 30.2086C22.4377 30.2086 22.8689 30.0742 23.2335 29.8075L28.0512 26.2919L25.595 22.9273Z" fill="#455A64"/>
<path d="M13.3748 21.0522L10.4373 25.0002L7.51025 21.1252C8.34359 20.9377 9.30192 20.8335 10.3853 20.8335H11.4269C12.1248 20.8335 12.8019 20.9272 13.3748 21.0522Z" fill="#E3F2FD"/>
<path d="M32.2917 10.4165H18.75V12.4998H32.2917V10.4165Z" fill="white"/>
<path d="M40.625 15.625H18.75V17.7083H40.625V15.625Z" fill="white"/>
<path d="M40.625 10.4165H34.375V12.4998H40.625V10.4165Z" fill="white"/>
</svg>
