<svg width="50" height="50" viewBox="0 0 50 50" fill="none" xmlns="http://www.w3.org/2000/svg">
<path d="M30.2085 13.4375H40.6252V25.1042H30.2085V13.4375Z" fill="#BF360C"/>
<path d="M45.8333 32.2915V44.7915H25V32.2915C25 25.104 32.1875 23.854 32.1875 23.854H38.75C38.6458 23.854 45.8333 25.104 45.8333 32.2915Z" fill="#3F51B5"/>
<path d="M35.4165 27.396C32.9165 27.396 32.2915 23.9585 32.2915 23.9585V19.896H38.5415V23.9585C38.5415 23.9585 37.9165 27.396 35.4165 27.396Z" fill="#FF9800"/>
<path d="M41.6665 11.7707C41.6665 6.45823 29.1665 8.33323 29.1665 11.7707C29.1665 12.4999 29.1665 15.9374 29.1665 16.6666C29.1665 20.1041 31.979 22.9166 35.4165 22.9166C38.854 22.9166 41.6665 20.1041 41.6665 16.6666C41.6665 15.9374 41.6665 12.4999 41.6665 11.7707Z" fill="#FFCE87"/>
<path d="M35.4165 5.2085C31.4582 5.2085 26.0415 8.021 26.0415 22.9168L30.2082 24.4793V15.6252L37.4998 11.4585L40.6248 14.5835V24.4793L44.7915 21.8752C44.7915 16.3543 44.5832 6.25016 37.9165 6.25016L37.2915 5.2085H35.4165Z" fill="#FF5722"/>
<path d="M35.4165 28.1252C32.604 28.1252 32.2915 23.9585 32.2915 23.9585C32.2915 23.9585 33.229 27.0835 35.4165 27.0835C37.604 27.0835 38.5415 23.9585 38.5415 23.9585C38.5415 23.9585 38.229 28.1252 35.4165 28.1252Z" fill="#FFCE87"/>
<path d="M14.5831 27.7085C11.2498 27.7085 11.4581 23.9585 11.4581 23.9585V20.2085H17.7081V23.9585C17.7081 23.9585 17.9165 27.7085 14.5831 27.7085Z" fill="#FF9800"/>
<path d="M20.3123 14.5835C19.8979 14.5835 19.5005 14.7481 19.2075 15.0411C18.9145 15.3342 18.7498 15.7316 18.7498 16.146C18.7498 16.5604 18.9145 16.9578 19.2075 17.2508C19.5005 17.5439 19.8979 17.7085 20.3123 17.7085C20.7267 17.7085 21.1242 17.5439 21.4172 17.2508C21.7102 16.9578 21.8748 16.5604 21.8748 16.146C21.8748 15.7316 21.7102 15.3342 21.4172 15.0411C21.1242 14.7481 20.7267 14.5835 20.3123 14.5835ZM8.854 14.5835C8.4396 14.5835 8.04217 14.7481 7.74915 15.0411C7.45612 15.3342 7.2915 15.7316 7.2915 16.146C7.2915 16.5604 7.45612 16.9578 7.74915 17.2508C8.04217 17.5439 8.4396 17.7085 8.854 17.7085C9.2684 17.7085 9.66583 17.5439 9.95886 17.2508C10.2519 16.9578 10.4165 16.5604 10.4165 16.146C10.4165 15.7316 10.2519 15.3342 9.95886 15.0411C9.66583 14.7481 9.2684 14.5835 8.854 14.5835Z" fill="#FFA726"/>
<path d="M20.8335 11.7707C20.8335 6.45823 8.3335 8.33323 8.3335 11.7707C8.3335 12.4999 8.3335 15.9374 8.3335 16.6666C8.3335 20.1041 11.146 22.9166 14.5835 22.9166C18.021 22.9166 20.8335 20.1041 20.8335 16.6666C20.8335 15.9374 20.8335 12.4999 20.8335 11.7707Z" fill="#FFCE87"/>
<path d="M14.5832 5.2085C10.104 5.2085 7.2915 8.75016 7.2915 13.2293C7.2915 13.8543 7.2915 15.6252 7.2915 15.6252L8.74984 16.146V12.5002L17.4998 9.5835L20.4165 12.5002V16.146L21.8748 15.6252C21.8748 15.6252 21.8748 13.8543 21.8748 13.2293C21.8748 10.3127 21.1457 7.396 17.4998 6.66683L16.7707 5.2085H14.5832Z" fill="#424242"/>
<path d="M17.7082 23.854C17.7082 23.854 17.2915 26.0415 14.5832 26.0415C11.8748 26.0415 11.4582 23.854 11.4582 23.854C11.4582 23.854 4.1665 25.104 4.1665 32.2915V44.7915H24.9998V32.2915C24.9998 25.104 17.7082 23.854 17.7082 23.854Z" fill="#009688"/>
<path d="M24.9999 41.6665C22.7082 41.6665 22.9166 39.5832 22.9166 39.5832V36.6665H27.0832V39.5832C27.0832 39.5832 27.2916 41.6665 24.9999 41.6665Z" fill="#FF9800"/>
<path d="M29.1665 32.396C28.8902 32.396 28.6253 32.5057 28.4299 32.7011C28.2346 32.8964 28.1248 33.1614 28.1248 33.4377C28.1248 33.7139 28.2346 33.9789 28.4299 34.1742C28.6253 34.3696 28.8902 34.4793 29.1665 34.4793C29.4428 34.4793 29.7077 34.3696 29.9031 34.1742C30.0984 33.9789 30.2082 33.7139 30.2082 33.4377C30.2082 33.1614 30.0984 32.8964 29.9031 32.7011C29.7077 32.5057 29.4428 32.396 29.1665 32.396ZM20.8332 32.396C20.5569 32.396 20.292 32.5057 20.0966 32.7011C19.9012 32.8964 19.7915 33.1614 19.7915 33.4377C19.7915 33.7139 19.9012 33.9789 20.0966 34.1742C20.292 34.3696 20.5569 34.4793 20.8332 34.4793C21.1094 34.4793 21.3744 34.3696 21.5697 34.1742C21.7651 33.9789 21.8748 33.7139 21.8748 33.4377C21.8748 33.1614 21.7651 32.8964 21.5697 32.7011C21.3744 32.5057 21.1094 32.396 20.8332 32.396Z" fill="#FFA726"/>
<path d="M29.1668 31.2501C29.1668 27.7085 20.8335 28.9585 20.8335 31.2501C20.8335 31.771 20.8335 33.9585 20.8335 34.4793C20.8335 36.771 22.7085 38.646 25.0002 38.646C27.2918 38.646 29.1668 36.771 29.1668 34.4793C29.1668 33.9585 29.1668 31.6668 29.1668 31.2501Z" fill="#FFCE87"/>
<path d="M24.9998 26.146C21.8748 26.146 19.7915 28.7502 19.7915 31.8752C19.7915 32.2918 19.7915 33.5418 19.7915 33.5418L20.8332 33.9585V31.3543L27.0832 29.271L29.1665 31.3543V33.9585L30.2082 33.5418C30.2082 33.5418 30.2082 32.2918 30.2082 31.8752C30.2082 29.7918 29.6873 27.7085 27.0832 27.1877L26.5623 26.146H24.9998Z" fill="#FF5722"/>
<path d="M27.0835 38.854C27.0835 38.854 26.771 40.6248 25.0002 40.6248C23.2293 40.6248 22.9168 38.854 22.9168 38.854C22.9168 38.854 17.7085 39.7915 17.7085 44.7915H32.2918C32.2918 39.7915 27.0835 38.854 27.0835 38.854Z" fill="#00BCD4"/>
</svg>
